<svg xmlns="http://www.w3.org/2000/svg" xmlns:xlink="http://www.w3.org/1999/xlink" width="2000" zoomAndPan="magnify" viewBox="0 0 1500 1499.999933" height="2000" preserveAspectRatio="xMidYMid meet" version="1.0"><defs><g/><clipPath id="3a20039810"><path d="M 850 543 L 927.8125 543 L 927.8125 827 L 850 827 Z M 850 543 " clip-rule="nonzero"/></clipPath><clipPath id="86eadc4725"><path d="M 572.3125 432.675781 L 736 432.675781 L 736 703 L 572.3125 703 Z M 572.3125 432.675781 " clip-rule="nonzero"/></clipPath><clipPath id="40ec8969f6"><path d="M 572.3125 687 L 736 687 L 736 813 L 572.3125 813 Z M 572.3125 687 " clip-rule="nonzero"/></clipPath><clipPath id="36130f8926"><rect x="0" width="564" y="0" height="141"/></clipPath><clipPath id="612f1df4e9"><rect x="0" width="168" y="0" height="63"/></clipPath></defs><g clip-path="url(#3a20039810)"><path fill="#ffffff" d="M 927.683594 557.796875 L 927.683594 817.125 C 927.683594 822.40625 923.359375 826.726562 918.078125 826.726562 L 889.261719 826.726562 C 876.058594 826.726562 863.140625 824.757812 850.84375 821.109375 L 850.84375 543.34375 C 863.332031 546.5625 876.203125 548.195312 889.261719 548.195312 L 918.078125 548.195312 C 923.359375 548.195312 927.683594 552.515625 927.683594 557.796875 Z M 927.683594 557.796875 " fill-opacity="1" fill-rule="nonzero"/></g><path fill="#ffffff" d="M 831.636719 538.589844 L 831.636719 760.550781 C 819.4375 748.066406 802.4375 740.285156 783.613281 740.285156 L 754.796875 740.285156 L 754.796875 490.566406 L 783.613281 490.566406 C 810.121094 490.566406 831.636719 512.082031 831.636719 538.589844 Z M 831.636719 538.589844 " fill-opacity="1" fill-rule="nonzero"/><g clip-path="url(#86eadc4725)"><path fill="#ffffff" d="M 735.589844 495.367188 L 735.589844 702.15625 C 717.246094 681.648438 687.519531 668.25 653.949219 668.25 C 620.382812 668.25 590.65625 681.648438 572.3125 702.15625 L 572.3125 495.367188 C 572.3125 460.9375 608.953125 432.9375 653.949219 432.9375 C 698.996094 432.9375 735.589844 460.9375 735.589844 495.367188 Z M 735.589844 495.367188 " fill-opacity="1" fill-rule="nonzero"/></g><g clip-path="url(#40ec8969f6)"><path fill="#ffffff" d="M 653.949219 687.460938 C 608.953125 687.460938 572.3125 715.457031 572.3125 749.890625 C 572.3125 784.324219 608.953125 812.320312 653.949219 812.320312 C 698.996094 812.320312 735.589844 784.324219 735.589844 749.890625 C 735.589844 715.457031 698.996094 687.460938 653.949219 687.460938 Z M 653.949219 783.507812 C 623.839844 783.507812 601.125 769.050781 601.125 749.890625 C 601.125 730.730469 623.839844 716.273438 653.949219 716.273438 C 684.0625 716.273438 706.777344 730.730469 706.777344 749.890625 C 706.777344 769.050781 684.0625 783.507812 653.949219 783.507812 Z M 653.949219 783.507812 " fill-opacity="1" fill-rule="nonzero"/></g><path fill="#ffffff" d="M 687.566406 749.890625 C 687.566406 750.363281 687.511719 750.832031 687.40625 751.304688 C 687.296875 751.773438 687.136719 752.238281 686.921875 752.703125 C 686.707031 753.164062 686.4375 753.621094 686.117188 754.074219 C 685.800781 754.523438 685.429688 754.96875 685.007812 755.40625 C 684.585938 755.839844 684.117188 756.265625 683.597656 756.683594 C 683.078125 757.097656 682.511719 757.503906 681.902344 757.894531 C 681.289062 758.289062 680.632812 758.667969 679.9375 759.03125 C 679.238281 759.394531 678.5 759.746094 677.71875 760.078125 C 676.941406 760.414062 676.128906 760.730469 675.277344 761.027344 C 674.425781 761.328125 673.542969 761.609375 672.625 761.871094 C 671.710938 762.132812 670.769531 762.375 669.796875 762.597656 C 668.824219 762.820312 667.832031 763.019531 666.816406 763.203125 C 665.796875 763.382812 664.761719 763.539062 663.707031 763.679688 C 662.65625 763.816406 661.589844 763.929688 660.507812 764.019531 C 659.429688 764.113281 658.339844 764.183594 657.246094 764.230469 C 656.148438 764.273438 655.050781 764.296875 653.949219 764.296875 C 652.847656 764.296875 651.75 764.273438 650.65625 764.230469 C 649.558594 764.183594 648.472656 764.113281 647.390625 764.019531 C 646.3125 763.929688 645.246094 763.816406 644.191406 763.679688 C 643.136719 763.539062 642.101562 763.382812 641.085938 763.203125 C 640.070312 763.019531 639.074219 762.820312 638.105469 762.597656 C 637.132812 762.375 636.191406 762.132812 635.273438 761.871094 C 634.359375 761.609375 633.476562 761.328125 632.625 761.027344 C 631.773438 760.730469 630.957031 760.414062 630.179688 760.078125 C 629.402344 759.746094 628.664062 759.394531 627.964844 759.03125 C 627.265625 758.667969 626.609375 758.289062 626 757.894531 C 625.386719 757.503906 624.824219 757.097656 624.304688 756.683594 C 623.785156 756.265625 623.3125 755.839844 622.894531 755.40625 C 622.472656 754.96875 622.101562 754.523438 621.78125 754.074219 C 621.460938 753.621094 621.195312 753.164062 620.980469 752.703125 C 620.765625 752.238281 620.605469 751.773438 620.496094 751.304688 C 620.386719 750.832031 620.335938 750.363281 620.335938 749.890625 C 620.335938 749.417969 620.386719 748.949219 620.496094 748.480469 C 620.605469 748.007812 620.765625 747.542969 620.980469 747.082031 C 621.195312 746.617188 621.460938 746.160156 621.78125 745.710938 C 622.101562 745.257812 622.472656 744.8125 622.894531 744.378906 C 623.3125 743.941406 623.785156 743.515625 624.304688 743.101562 C 624.824219 742.683594 625.386719 742.28125 626 741.886719 C 626.609375 741.496094 627.265625 741.117188 627.964844 740.75 C 628.664062 740.386719 629.402344 740.039062 630.179688 739.703125 C 630.957031 739.371094 631.773438 739.054688 632.625 738.753906 C 633.476562 738.457031 634.359375 738.175781 635.273438 737.914062 C 636.191406 737.648438 637.132812 737.40625 638.105469 737.183594 C 639.074219 736.964844 640.070312 736.761719 641.085938 736.582031 C 642.101562 736.398438 643.136719 736.242188 644.191406 736.105469 C 645.246094 735.96875 646.3125 735.851562 647.390625 735.761719 C 648.472656 735.667969 649.558594 735.601562 650.65625 735.554688 C 651.75 735.507812 652.847656 735.484375 653.949219 735.484375 C 655.050781 735.484375 656.148438 735.507812 657.246094 735.554688 C 658.339844 735.601562 659.429688 735.667969 660.507812 735.761719 C 661.589844 735.851562 662.65625 735.96875 663.707031 736.105469 C 664.761719 736.242188 665.796875 736.398438 666.816406 736.582031 C 667.832031 736.761719 668.824219 736.964844 669.796875 737.183594 C 670.769531 737.40625 671.710938 737.648438 672.625 737.914062 C 673.542969 738.175781 674.425781 738.457031 675.277344 738.753906 C 676.128906 739.054688 676.941406 739.371094 677.71875 739.703125 C 678.5 740.039062 679.238281 740.386719 679.9375 740.75 C 680.632812 741.117188 681.289062 741.496094 681.902344 741.886719 C 682.511719 742.28125 683.078125 742.683594 683.597656 743.101562 C 684.117188 743.515625 684.585938 743.941406 685.007812 744.378906 C 685.429688 744.8125 685.800781 745.257812 686.117188 745.710938 C 686.4375 746.160156 686.707031 746.617188 686.921875 747.082031 C 687.136719 747.542969 687.296875 748.007812 687.40625 748.480469 C 687.511719 748.949219 687.566406 749.417969 687.566406 749.890625 Z M 687.566406 749.890625 " fill-opacity="1" fill-rule="nonzero"/><g transform="matrix(1, 0, 0, 1, 469, 855)"><g clip-path="url(#36130f8926)"><g fill="#ffffff" fill-opacity="1"><g transform="translate(0.961722, 107.980176)"><g><path d="M 61.9375 -70.75 L 40.890625 -70.75 L 40.890625 0 L 23.65625 0 L 23.65625 -70.75 L 2.984375 -70.75 L 2.984375 -85.0625 L 61.9375 -85.0625 Z M 61.9375 -70.75 "/></g></g></g><g fill="#ffffff" fill-opacity="1"><g transform="translate(65.918606, 107.980176)"><g><path d="M 50.765625 -36.8125 L 24.015625 -36.8125 L 24.015625 -14.25 L 55.6875 -14.25 L 55.6875 0 L 6.828125 0 L 6.828125 -85.0625 L 55.5625 -85.0625 L 55.5625 -70.75 L 24.015625 -70.75 L 24.015625 -50.65625 L 50.765625 -50.65625 Z M 50.765625 -36.8125 "/></g></g></g><g fill="#ffffff" fill-opacity="1"><g transform="translate(124.625142, 107.980176)"><g><path d="M 24.015625 -14.25 L 54.15625 -14.25 L 54.15625 0 L 6.828125 0 L 6.828125 -85.0625 L 24.015625 -85.0625 Z M 24.015625 -14.25 "/></g></g></g><g fill="#ffffff" fill-opacity="1"><g transform="translate(181.871316, 107.980176)"><g><path d="M 47.4375 -17.40625 L 24.015625 -17.40625 L 19.453125 0 L 1.28125 0 L 27.875 -85.0625 L 43.578125 -85.0625 L 70.34375 0 L 52 0 Z M 27.75 -31.71875 L 43.640625 -31.71875 L 35.703125 -62.046875 Z M 27.75 -31.71875 "/></g></g></g><g fill="#ffffff" fill-opacity="1"><g transform="translate(253.312204, 107.980176)"><g><path d="M 42.765625 -22.3125 C 42.765625 -25.78125 41.878906 -28.398438 40.109375 -30.171875 C 38.335938 -31.941406 35.113281 -33.785156 30.4375 -35.703125 C 21.90625 -38.929688 15.769531 -42.71875 12.03125 -47.0625 C 8.289062 -51.40625 6.421875 -56.535156 6.421875 -62.453125 C 6.421875 -69.617188 8.960938 -75.375 14.046875 -79.71875 C 19.128906 -84.0625 25.585938 -86.234375 33.421875 -86.234375 C 38.640625 -86.234375 43.289062 -85.132812 47.375 -82.9375 C 51.46875 -80.738281 54.613281 -77.628906 56.8125 -73.609375 C 59.019531 -69.597656 60.125 -65.039062 60.125 -59.9375 L 43 -59.9375 C 43 -63.914062 42.148438 -66.945312 40.453125 -69.03125 C 38.765625 -71.113281 36.320312 -72.15625 33.125 -72.15625 C 30.125 -72.15625 27.785156 -71.269531 26.109375 -69.5 C 24.441406 -67.726562 23.609375 -65.34375 23.609375 -62.34375 C 23.609375 -60 24.539062 -57.882812 26.40625 -56 C 28.28125 -54.113281 31.59375 -52.15625 36.34375 -50.125 C 44.632812 -47.125 50.660156 -43.441406 54.421875 -39.078125 C 58.179688 -34.722656 60.0625 -29.175781 60.0625 -22.4375 C 60.0625 -15.03125 57.703125 -9.242188 52.984375 -5.078125 C 48.273438 -0.910156 41.867188 1.171875 33.765625 1.171875 C 28.273438 1.171875 23.269531 0.0390625 18.75 -2.21875 C 14.238281 -4.476562 10.707031 -7.710938 8.15625 -11.921875 C 5.601562 -16.128906 4.328125 -21.09375 4.328125 -26.8125 L 21.5625 -26.8125 C 21.5625 -21.90625 22.515625 -18.34375 24.421875 -16.125 C 26.328125 -13.90625 29.441406 -12.796875 33.765625 -12.796875 C 39.765625 -12.796875 42.765625 -15.96875 42.765625 -22.3125 Z M 42.765625 -22.3125 "/></g></g></g><g fill="#ffffff" fill-opacity="1"><g transform="translate(317.918601, 107.980176)"><g/></g></g><g fill="#ffffff" fill-opacity="1"><g transform="translate(345.490227, 107.980176)"><g><path d="M 62.109375 -31.609375 L 70.171875 -85.0625 L 87.171875 -85.0625 L 72.046875 0 L 54.796875 0 L 44.875 -50.125 L 35.0625 0 L 17.765625 0 L 2.578125 -85.0625 L 19.6875 -85.0625 L 27.6875 -31.671875 L 37.6875 -85.0625 L 52.109375 -85.0625 Z M 62.109375 -31.609375 "/></g></g></g><g fill="#ffffff" fill-opacity="1"><g transform="translate(435.098013, 107.980176)"><g><path d="M 50.765625 -36.8125 L 24.015625 -36.8125 L 24.015625 -14.25 L 55.6875 -14.25 L 55.6875 0 L 6.828125 0 L 6.828125 -85.0625 L 55.5625 -85.0625 L 55.5625 -70.75 L 24.015625 -70.75 L 24.015625 -50.65625 L 50.765625 -50.65625 Z M 50.765625 -36.8125 "/></g></g></g><g fill="#ffffff" fill-opacity="1"><g transform="translate(493.804549, 107.980176)"><g><path d="M 6.828125 0 L 6.828125 -85.0625 L 33.125 -85.0625 C 42.007812 -85.0625 48.757812 -83.082031 53.375 -79.125 C 57.988281 -75.175781 60.296875 -69.382812 60.296875 -61.75 C 60.296875 -57.425781 59.335938 -53.707031 57.421875 -50.59375 C 55.515625 -47.476562 52.910156 -45.203125 49.609375 -43.765625 C 53.421875 -42.671875 56.359375 -40.476562 58.421875 -37.1875 C 60.484375 -33.894531 61.515625 -29.832031 61.515625 -25 C 61.515625 -16.75 59.242188 -10.519531 54.703125 -6.3125 C 50.171875 -2.101562 43.601562 0 35 0 Z M 24.015625 -36.984375 L 24.015625 -14.25 L 35 -14.25 C 38.070312 -14.25 40.40625 -15.203125 42 -17.109375 C 43.601562 -19.023438 44.40625 -21.734375 44.40625 -25.234375 C 44.40625 -32.867188 41.640625 -36.785156 36.109375 -36.984375 Z M 24.015625 -49.484375 L 32.953125 -49.484375 C 39.691406 -49.484375 43.0625 -52.96875 43.0625 -59.9375 C 43.0625 -63.800781 42.28125 -66.566406 40.71875 -68.234375 C 39.164062 -69.910156 36.632812 -70.75 33.125 -70.75 L 24.015625 -70.75 Z M 24.015625 -49.484375 "/></g></g></g></g></g><g transform="matrix(1, 0, 0, 1, 670, 1001)"><g clip-path="url(#612f1df4e9)"><g fill="#ffffff" fill-opacity="1"><g transform="translate(0.795325, 44.993114)"><g><path d="M 16.5625 -43 C 19.28125 -43 21.644531 -42.476562 23.65625 -41.4375 C 25.664062 -40.40625 27.207031 -39.003906 28.28125 -37.234375 C 29.363281 -35.460938 29.90625 -33.5 29.90625 -31.34375 C 29.90625 -29.070312 29.335938 -26.914062 28.203125 -24.875 C 27.066406 -22.84375 25.679688 -21.007812 24.046875 -19.375 C 22.410156 -17.738281 20.316406 -15.863281 17.765625 -13.75 C 15.210938 -11.644531 13.296875 -9.984375 12.015625 -8.765625 C 10.742188 -7.546875 9.726562 -6.300781 8.96875 -5.03125 L 29.96875 -5.03125 L 29.96875 0 L 1.671875 0 C 1.671875 -2.4375 2.566406 -4.921875 4.359375 -7.453125 C 6.160156 -9.984375 8.59375 -12.523438 11.65625 -15.078125 C 14.726562 -17.628906 17.140625 -19.726562 18.890625 -21.375 C 20.648438 -23.03125 22.023438 -24.664062 23.015625 -26.28125 C 24.015625 -27.894531 24.515625 -29.539062 24.515625 -31.21875 C 24.515625 -33.375 23.757812 -35.160156 22.25 -36.578125 C 20.738281 -37.992188 18.828125 -38.703125 16.515625 -38.703125 C 14.117188 -38.703125 12.125 -37.972656 10.53125 -36.515625 C 8.9375 -35.054688 8.117188 -32.894531 8.078125 -30.03125 L 2.6875 -30.625 C 3.050781 -34.65625 4.445312 -37.722656 6.875 -39.828125 C 9.3125 -41.941406 12.539062 -43 16.5625 -43 Z M 16.5625 -43 "/></g></g></g><g fill="#ffffff" fill-opacity="1"><g transform="translate(42.482949, 44.993114)"><g><path d="M 16.625 -43 C 21.175781 -43 24.644531 -41.1875 27.03125 -37.5625 C 29.425781 -33.9375 30.625 -28.453125 30.625 -21.109375 C 30.625 -13.773438 29.4375 -8.300781 27.0625 -4.6875 C 24.6875 -1.082031 21.226562 0.71875 16.6875 0.71875 C 7.351562 0.71875 2.6875 -6.554688 2.6875 -21.109375 C 2.6875 -28.242188 3.84375 -33.675781 6.15625 -37.40625 C 8.46875 -41.132812 11.957031 -43 16.625 -43 Z M 8.078125 -21.109375 C 8.078125 -15.253906 8.753906 -10.867188 10.109375 -7.953125 C 11.460938 -5.046875 13.632812 -3.59375 16.625 -3.59375 C 19.65625 -3.59375 21.847656 -5.046875 23.203125 -7.953125 C 24.554688 -10.867188 25.234375 -15.253906 25.234375 -21.109375 C 25.234375 -27.253906 24.523438 -31.722656 23.109375 -34.515625 C 21.703125 -37.304688 19.519531 -38.703125 16.5625 -38.703125 C 13.613281 -38.703125 11.460938 -37.242188 10.109375 -34.328125 C 8.753906 -31.421875 8.078125 -27.015625 8.078125 -21.109375 Z M 8.078125 -21.109375 "/></g></g></g><g fill="#ffffff" fill-opacity="1"><g transform="translate(84.170572, 44.993114)"><g><path d="M 16.5625 -43 C 19.28125 -43 21.644531 -42.476562 23.65625 -41.4375 C 25.664062 -40.40625 27.207031 -39.003906 28.28125 -37.234375 C 29.363281 -35.460938 29.90625 -33.5 29.90625 -31.34375 C 29.90625 -29.070312 29.335938 -26.914062 28.203125 -24.875 C 27.066406 -22.84375 25.679688 -21.007812 24.046875 -19.375 C 22.410156 -17.738281 20.316406 -15.863281 17.765625 -13.75 C 15.210938 -11.644531 13.296875 -9.984375 12.015625 -8.765625 C 10.742188 -7.546875 9.726562 -6.300781 8.96875 -5.03125 L 29.96875 -5.03125 L 29.96875 0 L 1.671875 0 C 1.671875 -2.4375 2.566406 -4.921875 4.359375 -7.453125 C 6.160156 -9.984375 8.59375 -12.523438 11.65625 -15.078125 C 14.726562 -17.628906 17.140625 -19.726562 18.890625 -21.375 C 20.648438 -23.03125 22.023438 -24.664062 23.015625 -26.28125 C 24.015625 -27.894531 24.515625 -29.539062 24.515625 -31.21875 C 24.515625 -33.375 23.757812 -35.160156 22.25 -36.578125 C 20.738281 -37.992188 18.828125 -38.703125 16.515625 -38.703125 C 14.117188 -38.703125 12.125 -37.972656 10.53125 -36.515625 C 8.9375 -35.054688 8.117188 -32.894531 8.078125 -30.03125 L 2.6875 -30.625 C 3.050781 -34.65625 4.445312 -37.722656 6.875 -39.828125 C 9.3125 -41.941406 12.539062 -43 16.5625 -43 Z M 16.5625 -43 "/></g></g></g><g fill="#ffffff" fill-opacity="1"><g transform="translate(125.858196, 44.993114)"><g><path d="M 17.765625 -43 C 21.148438 -43 23.929688 -42.070312 26.109375 -40.21875 C 28.285156 -38.363281 29.59375 -35.742188 30.03125 -32.359375 L 24.828125 -31.9375 C 23.785156 -36.445312 21.367188 -38.703125 17.578125 -38.703125 C 14.585938 -38.703125 12.210938 -37.296875 10.453125 -34.484375 C 8.703125 -31.671875 7.8125 -27.535156 7.78125 -22.078125 C 10.363281 -25.859375 13.867188 -27.75 18.296875 -27.75 C 20.492188 -27.75 22.546875 -27.171875 24.453125 -26.015625 C 26.367188 -24.859375 27.90625 -23.222656 29.0625 -21.109375 C 30.21875 -18.992188 30.796875 -16.601562 30.796875 -13.9375 C 30.796875 -11.1875 30.226562 -8.691406 29.09375 -6.453125 C 27.957031 -4.222656 26.375 -2.46875 24.34375 -1.1875 C 22.3125 0.0820312 20.039062 0.71875 17.53125 0.71875 C 12.976562 0.71875 9.304688 -0.957031 6.515625 -4.3125 C 5.078125 -5.976562 4.050781 -8.085938 3.4375 -10.640625 C 2.820312 -13.191406 2.515625 -16.320312 2.515625 -20.03125 C 2.515625 -27.613281 3.828125 -33.335938 6.453125 -37.203125 C 9.085938 -41.066406 12.859375 -43 17.765625 -43 Z M 8.546875 -13.875 C 8.546875 -12 8.925781 -10.273438 9.6875 -8.703125 C 10.445312 -7.128906 11.492188 -5.882812 12.828125 -4.96875 C 14.160156 -4.050781 15.644531 -3.59375 17.28125 -3.59375 C 18.84375 -3.59375 20.238281 -4.019531 21.46875 -4.875 C 22.707031 -5.726562 23.675781 -6.921875 24.375 -8.453125 C 25.070312 -9.992188 25.421875 -11.703125 25.421875 -13.578125 C 25.421875 -16.367188 24.648438 -18.671875 23.109375 -20.484375 C 21.578125 -22.296875 19.554688 -23.203125 17.046875 -23.203125 C 15.535156 -23.203125 14.117188 -22.800781 12.796875 -22 C 11.484375 -21.207031 10.445312 -20.101562 9.6875 -18.6875 C 8.925781 -17.269531 8.546875 -15.664062 8.546875 -13.875 Z M 8.546875 -13.875 "/></g></g></g></g></g></svg>